<?xml version="1.0" encoding="UTF-8" standalone="no"?>
<!DOCTYPE svg PUBLIC "-//W3C//DTD SVG 1.1//EN" "http://www.w3.org/Graphics/SVG/1.1/DTD/svg11.dtd">
<svg width="100%" height="100%" viewBox="0 0 2048 2048" version="1.1" xmlns="http://www.w3.org/2000/svg" xmlns:xlink="http://www.w3.org/1999/xlink" xml:space="preserve" xmlns:serif="http://www.serif.com/" style="fill-rule:evenodd;clip-rule:evenodd;stroke-linejoin:round;stroke-miterlimit:2;">
    <g id="LeftFoot" transform="matrix(0.774105,0,0,0.774105,29.7222,1377.61)">
        <g id="LeftFootThumb" transform="matrix(1,0,0,1,-146.419,-100.403)">
            <rect x="277.994" y="422.594" width="207.614" height="322.709" style="fill:rgb(235,235,235);"/>
        </g>
        <g id="LeftFootIndex" transform="matrix(1,0,0,1,125.461,-100.403)">
            <rect x="277.994" y="422.594" width="207.614" height="322.709" style="fill:rgb(235,235,235);"/>
        </g>
        <g id="LeftFootMiddle" transform="matrix(1,0,0,1,384.578,-100.403)">
            <rect x="277.994" y="422.594" width="207.614" height="322.709" style="fill:rgb(235,235,235);"/>
        </g>
        <g id="LeftFootRing" transform="matrix(1,0,0,1,670.651,-100.403)">
            <rect x="277.994" y="422.594" width="207.614" height="322.709" style="fill:rgb(235,235,235);"/>
        </g>
        <g id="LeftFootLittle" transform="matrix(1,0,0,1,928.241,-100.403)">
            <rect x="277.994" y="422.594" width="207.614" height="322.709" style="fill:rgb(235,235,235);"/>
        </g>
    </g>
    <g id="RightFoot" transform="matrix(0.774105,0,0,0.774105,29.7222,1041.31)">
        <g id="RightFootThumb" transform="matrix(1,0,0,1,-146.419,-100.403)">
            <rect x="277.994" y="422.594" width="207.614" height="322.709" style="fill:rgb(235,235,235);"/>
        </g>
        <g id="RightFootIndex" transform="matrix(1,0,0,1,125.461,-100.403)">
            <rect x="277.994" y="422.594" width="207.614" height="322.709" style="fill:rgb(235,235,235);"/>
        </g>
        <g id="RightFootMiddle" transform="matrix(1,0,0,1,384.578,-100.403)">
            <rect x="277.994" y="422.594" width="207.614" height="322.709" style="fill:rgb(235,235,235);"/>
        </g>
        <g id="RightFootRing" transform="matrix(1,0,0,1,670.651,-100.403)">
            <rect x="277.994" y="422.594" width="207.614" height="322.709" style="fill:rgb(235,235,235);"/>
        </g>
        <g id="RightFootLittle" transform="matrix(1,0,0,1,928.241,-100.403)">
            <rect x="277.994" y="422.594" width="207.614" height="322.709" style="fill:rgb(235,235,235);"/>
        </g>
    </g>
    <g id="LeftHand" transform="matrix(1,0,0,1,0,380.786)">
        <g id="LeftHandThumb" transform="matrix(0.979188,0.202954,-0.202954,0.979188,-19.9589,-165.738)">
            <rect x="277.994" y="422.594" width="207.614" height="322.709" style="fill:rgb(235,235,235);"/>
        </g>
        <g id="LeftHandIndex" transform="matrix(0.979188,0.202954,-0.202954,0.979188,251.922,-165.738)">
            <rect x="277.994" y="422.594" width="207.614" height="322.709" style="fill:rgb(235,235,235);"/>
        </g>
        <g id="LeftHandMiddle" transform="matrix(0.979188,0.202954,-0.202954,0.979188,511.038,-165.738)">
            <rect x="277.994" y="422.594" width="207.614" height="322.709" style="fill:rgb(235,235,235);"/>
        </g>
        <g id="LeftHandRing" transform="matrix(0.979188,0.202954,-0.202954,0.979188,797.112,-165.738)">
            <rect x="277.994" y="422.594" width="207.614" height="322.709" style="fill:rgb(235,235,235);"/>
        </g>
        <g id="LeftHandLittle" transform="matrix(0.979188,0.202954,-0.202954,0.979188,1054.7,-165.738)">
            <rect x="277.994" y="422.594" width="207.614" height="322.709" style="fill:rgb(235,235,235);"/>
        </g>
    </g>
    <g id="RightHand">
        <g id="RightHandThumb" transform="matrix(1,0,0,1,-146.419,-100.403)">
            <rect x="277.994" y="422.594" width="207.614" height="322.709" style="fill:rgb(235,235,235);"/>
        </g>
        <g id="RightHandIndex" transform="matrix(1,0,0,1,125.461,-100.403)">
            <rect x="277.994" y="422.594" width="207.614" height="322.709" style="fill:rgb(235,235,235);"/>
        </g>
        <g id="RightHandMiddle" transform="matrix(1,0,0,1,384.578,-100.403)">
            <rect x="277.994" y="422.594" width="207.614" height="322.709" style="fill:rgb(235,235,235);"/>
        </g>
        <g id="RightHandRing" transform="matrix(1,0,0,1,670.651,-100.403)">
            <rect x="277.994" y="422.594" width="207.614" height="322.709" style="fill:rgb(235,235,235);"/>
        </g>
        <g id="RightHandLittle" transform="matrix(1,0,0,1,928.241,-100.403)">
            <rect x="277.994" y="422.594" width="207.614" height="322.709" style="fill:rgb(235,235,235);"/>
        </g>
    </g>
</svg>
